<svg width="39" height="52" viewBox="0 0 39 52" fill="none" xmlns="http://www.w3.org/2000/svg">
<path d="M23.814 20.7844C23.0173 20.7952 23.9639 21.2 25.0043 21.3629C25.2928 21.1346 25.552 20.9051 25.7845 20.6811C25.1377 20.8418 24.4785 20.8456 23.814 20.7844Z" fill="#D70751"/>
<path d="M28.0894 19.7026C28.5656 19.0375 28.9112 18.3102 29.0333 17.5579C28.9261 18.0937 28.6408 18.5564 28.3699 19.0456C26.8804 19.9976 28.2291 18.4806 28.3688 17.9032C26.7679 19.9505 28.148 19.1306 28.0894 19.7026Z" fill="#D70751"/>
<path d="M29.6695 15.5334C29.7666 14.0771 29.3874 14.5381 29.2599 15.0928C29.4082 15.1719 29.5261 16.12 29.6695 15.5334Z" fill="#D70751"/>
<path d="M20.7914 -4.37061C21.2169 -4.29376 21.7108 -4.23423 21.6398 -4.13086C22.107 -4.23531 22.2121 -4.32948 20.7914 -4.37061Z" fill="#D70751"/>
<path d="M21.6398 -4.13086L21.3412 -4.06756L21.6201 -4.09353L21.6398 -4.13086Z" fill="#D70751"/>
<path d="M33.9028 23.7386C33.9508 25.0461 33.5269 25.6814 33.1435 26.8048L32.4539 27.1528C31.8903 28.2644 32.5099 27.8585 32.1062 28.7422C31.2253 29.5361 29.4367 31.2256 28.8639 31.3804C28.4453 31.3712 29.1471 30.8793 29.2388 30.6872C28.0608 31.5076 28.2933 31.9189 26.4914 32.4184L26.4392 32.2988C21.997 34.4201 15.8259 30.2169 15.907 24.4827C15.8601 24.8464 15.7721 24.7554 15.674 24.9016C15.4447 21.9517 17.0167 18.9888 19.6682 17.7771C22.2615 16.4751 25.3017 17.0086 27.158 18.7669C26.1384 17.4107 24.1071 15.9729 21.7016 16.106C19.344 16.1449 17.1378 17.6651 16.4019 19.3162C15.1946 20.0873 15.0538 22.2904 14.528 22.6941C13.8192 27.9759 15.8595 30.257 19.3114 32.9417C19.8532 33.3129 19.4639 33.3697 19.5365 33.6522C18.3899 33.1078 17.3404 32.2852 16.4765 31.2781C16.9352 31.9584 17.4295 32.6197 18.0689 33.1392C16.9869 32.7685 15.5422 30.4805 15.1215 30.3874C16.9853 33.774 22.6822 36.3267 25.667 35.0598C24.2858 35.1118 22.5319 35.0885 20.9811 34.5067C20.3278 34.1663 19.4431 33.4623 19.6015 33.3308C23.6736 34.8736 27.879 34.4986 31.4018 31.6331C32.2988 30.9242 33.2778 29.719 33.561 29.7028C33.1349 30.3533 33.6341 30.0156 33.3066 30.5898C34.1983 29.1281 32.9179 29.9945 34.2292 28.0658L34.7134 28.7422C34.5321 27.5278 36.1986 26.0548 36.029 24.1358C36.4114 23.5492 36.4551 24.7679 36.0498 26.1176C36.6124 24.6202 36.1986 24.3793 36.3426 23.1433C36.4977 23.5589 36.7041 24 36.8092 24.4389C36.4423 22.9912 37.1841 22.002 37.3686 21.1605C37.1862 21.0793 36.8028 21.8001 36.7143 20.0911C36.7276 19.3487 36.9185 19.702 36.9916 19.5191C36.8486 19.4352 36.4716 18.8659 36.2428 17.7744C36.4076 17.5173 36.6865 18.4395 36.9126 18.4768C36.7671 17.6093 36.517 16.9475 36.5063 16.2813C35.845 14.8797 36.2722 16.4686 35.7368 15.6795C35.0328 13.4532 36.3202 15.1627 36.4076 14.1518C37.4731 15.7185 38.0805 18.1483 38.3605 19.1544C38.1472 17.9275 37.8032 16.7386 37.3825 15.5886C37.7072 15.7277 36.8604 13.0652 37.8043 14.8283C36.7969 11.0699 33.4965 7.55771 30.4595 5.9104C30.8301 6.25512 31.2989 6.68805 31.1314 6.75624C29.6201 5.84437 29.8857 5.7724 29.6692 5.38709C28.44 4.87893 28.3579 5.42876 27.5446 5.38817C25.2249 4.13916 24.778 4.27174 22.6433 3.4903L22.7404 3.95137C21.204 3.43185 20.9502 4.14727 19.2901 3.95245C19.1893 3.8729 19.8223 3.66239 20.3438 3.58608C18.8581 3.78523 18.9275 3.28844 17.4738 3.64074C17.8316 3.38585 18.2113 3.21647 18.5931 3C17.382 3.07468 15.7006 3.71542 16.2195 3.13204C14.2437 4.02713 10.7343 5.28318 8.76488 7.15724L8.70302 6.7373C7.80072 7.83641 4.768 10.02 4.52642 11.4449L4.28485 11.5017C3.8161 12.3086 3.5116 13.2226 3.13938 14.0522C2.52558 15.1146 2.23921 14.4614 2.32667 14.6281C1.11881 17.1131 0.517808 19.2009 0 20.9142C0.369025 21.4744 0.00906558 24.2868 0.14825 26.5375C-0.457549 37.6552 7.83698 48.4488 16.9037 50.9403C18.2326 51.4236 20.2084 51.4063 21.8893 51.4539C19.9066 50.8781 19.6506 51.1492 17.718 50.4657C16.3246 49.799 16.0195 49.0387 15.0319 48.169L15.4228 48.8698C13.487 48.1744 14.2971 48.0094 12.7218 47.5034L13.1393 46.9509C12.5117 46.9022 11.4771 45.8783 11.1945 45.3095L10.5076 45.3371C9.68317 44.3056 9.24323 43.5605 9.27575 42.983L9.05391 43.3846C8.80274 42.9468 6.01905 39.5109 7.46316 40.3107C7.19492 40.0629 6.83816 39.9065 6.45154 39.1927L6.74537 38.8523C6.05158 37.9448 5.46658 36.7818 5.51138 36.3943C5.882 36.9019 6.13904 36.9972 6.39395 37.0843C4.63894 32.6662 4.54029 36.8413 3.2119 32.5872L3.49241 32.5645C3.2775 32.2338 3.14578 31.8772 2.973 31.526L3.09565 30.2894C1.83286 28.8088 2.74262 23.9875 2.92554 21.3439C3.05086 20.2692 3.97982 19.1246 4.68534 17.3296L4.25552 17.2549C5.07783 15.8002 8.94939 11.4108 10.7433 11.6359C11.612 10.5287 10.5705 11.6316 10.4004 11.3535C12.309 9.34951 12.9089 9.93776 14.1968 9.5768C15.5849 8.7407 13.0049 9.90366 13.663 9.25805C16.0643 8.63625 15.3641 7.84344 18.496 7.52794C18.8267 7.71843 17.7297 7.82234 17.4546 8.06965C19.4543 7.07607 23.784 7.30282 26.5975 8.62056C29.8596 10.1688 33.5269 14.7433 33.6719 19.0472L33.8367 19.0921C33.7535 20.8033 34.0948 22.7824 33.5024 24.5996L33.9028 23.7386Z" fill="#D70751"/>
<path d="M15.1163 21.8933L15.0038 22.4599C15.528 23.1824 15.9439 23.9649 16.6121 24.5277C16.1311 23.5758 15.7744 23.1824 15.1163 21.8933Z" fill="#D70751"/>
<path d="M16.354 26.8446C16.0767 26.5329 15.9135 26.1584 15.729 25.7861C15.905 26.4414 16.2655 27.0048 16.5999 27.5784L16.354 26.8446Z" fill="#D70751"/>
<path d="M38.2629 17.0124L38.1461 17.3112C37.9317 18.8578 37.4672 20.3883 36.7569 21.8078C37.5419 20.3104 38.0479 18.6722 38.2629 17.0124Z" fill="#D70751"/>
<path d="M20.9498 0.241365C21.4878 0.0416707 22.2734 0.131506 22.8461 0C22.1006 0.0633178 21.3588 0.1012 20.6266 0.195907L20.9498 0.241365Z" fill="#D70751"/>
<path d="M2.03455 10.4489C2.15881 11.6145 1.17063 12.0675 2.2532 11.298C2.83448 9.96991 2.02708 10.9316 2.03455 10.4489Z" fill="#D70751"/>
</svg>
