<svg width="392" height="196" viewBox="0 0 392 196" fill="none" xmlns="http://www.w3.org/2000/svg">
<path d="M130.048 84.3032C127.236 84.3349 130.576 85.5222 134.247 86C135.265 85.3302 136.18 84.6571 137 84C134.718 84.4714 132.392 84.4825 130.048 84.3032" fill="#D70751"/>
<path d="M144.38 81C145.702 78.8292 146.661 76.4552 147 74C146.702 75.7487 145.911 77.2589 145.159 78.8557C141.024 81.9627 144.768 77.0116 145.156 75.1269C140.712 81.809 144.543 79.133 144.38 81" fill="#D70751"/>
<path d="M149.926 67.3459C150.383 62.3453 148.599 63.9285 148 65.8332C148.697 66.1045 149.251 69.3602 149.926 67.3459Z" fill="#D70751"/>
<path d="M120 2C121.466 2.32054 123.168 2.56885 122.924 3C124.533 2.56433 124.895 2.17156 120 2Z" fill="#D70751"/>
<path d="M167.126 69.0531C167.286 73.3434 165.871 75.4282 164.592 79.1149L162.291 80.2567C160.41 83.9042 162.478 82.5724 161.131 85.4723C158.191 88.0774 152.223 93.6215 150.312 94.1294C148.915 94.0992 151.257 92.485 151.563 91.8546C147.632 94.5467 148.408 95.8964 142.396 97.5355L142.221 97.143C127.399 104.104 106.808 90.3114 107.078 71.4948C106.921 72.6882 106.628 72.3898 106.3 72.8693C105.535 63.1893 110.781 53.4667 119.628 49.4906C128.281 45.218 138.426 46.9689 144.62 52.7386C141.218 48.2884 134.44 43.57 126.413 44.0069C118.546 44.1347 111.185 49.123 108.729 54.541C104.701 57.0716 104.231 64.301 102.476 65.6257C100.112 82.9577 106.92 90.4428 118.438 99.2527C120.246 100.471 118.947 100.657 119.189 101.584C115.363 99.7979 111.861 97.0986 108.978 93.7938C110.509 96.026 112.158 98.1961 114.292 99.9009C110.681 98.6844 105.861 91.1762 104.457 90.8708C110.676 101.984 129.685 110.36 139.645 106.203C135.036 106.374 129.184 106.297 124.009 104.388C121.829 103.271 118.877 100.961 119.406 100.529C132.993 105.592 147.026 104.362 158.78 94.9587C161.773 92.6324 165.04 88.6777 165.985 88.6244C164.564 90.7589 166.229 89.6508 165.137 91.535C168.112 86.7385 163.839 89.5816 168.215 83.2525L169.831 85.4723C169.226 81.4874 174.786 76.6536 174.22 70.3565C175.496 68.4315 175.642 72.4307 174.29 76.8596C176.167 71.9459 174.786 71.1556 175.267 67.0996C175.785 68.4635 176.473 69.9108 176.824 71.351C175.599 66.6006 178.075 63.3544 178.69 60.593C178.082 60.3267 176.802 62.6921 176.507 57.084C176.551 54.6476 177.188 55.8072 177.432 55.207C176.955 54.9317 175.697 53.0635 174.934 49.4817C175.484 48.6382 176.414 51.6642 177.169 51.7867C176.683 48.9401 175.849 46.7683 175.813 44.5822C173.607 39.9828 175.032 45.1967 173.245 42.6075C170.896 35.3018 175.192 40.9116 175.484 37.5944C179.039 42.7354 181.066 50.7088 182 54.0101C181.288 49.9843 180.141 46.0828 178.737 42.3092C179.82 42.7656 176.995 34.0285 180.144 39.8141C176.783 27.4811 165.77 15.956 155.636 10.5504C156.873 11.6816 158.437 13.1022 157.878 13.326C152.835 10.3337 153.722 10.0975 152.999 8.83315C148.898 7.16565 148.624 8.96989 145.91 8.8367C138.17 4.73811 136.678 5.17318 129.555 2.60889L129.879 4.12189C124.753 2.41711 123.906 4.76474 118.367 4.12545C118.03 3.8644 120.142 3.17361 121.883 2.92322C116.925 3.57672 117.157 1.94651 112.306 3.10257C113.5 2.26616 114.767 1.71033 116.041 1C112 1.24506 106.389 3.34764 108.121 1.4333C101.528 4.37051 89.8177 8.49219 83.2464 14.6419L83.04 13.2638C80.0292 16.8705 69.9097 24.036 69.1036 28.7117L68.2975 28.8982C66.7334 31.5459 65.7174 34.5453 64.4754 37.2676C62.4273 40.7536 61.4717 38.6101 61.7636 39.1571C57.7332 47.3117 55.7278 54.1628 54 59.785C55.2314 61.623 54.0302 70.852 54.4947 78.2376C52.4733 114.72 80.1502 150.139 110.404 158.315C114.838 159.901 121.431 159.844 127.039 160C120.424 158.111 119.569 159 113.121 156.757C108.471 154.57 107.453 152.075 104.158 149.221L105.462 151.52C99.003 149.239 101.706 148.697 96.4496 147.036L97.8429 145.223C95.7485 145.064 92.2964 141.704 91.3534 139.837L89.0615 139.928C86.3105 136.543 84.8425 134.098 84.951 132.203L84.2108 133.521C83.3727 132.084 74.0842 120.809 78.9028 123.434C78.0078 122.621 76.8174 122.107 75.5273 119.765L76.5077 118.648C74.1927 115.67 72.2407 111.854 72.3902 110.582C73.6269 112.248 74.4846 112.561 75.3351 112.847C69.4791 98.3488 69.1499 112.049 64.7174 98.0895L65.6533 98.0149C64.9362 96.9299 64.4967 95.7596 63.9202 94.6071L64.3295 90.5494C60.1158 85.6907 63.1515 69.8699 63.7618 61.195C64.18 57.6683 67.2797 53.9124 69.6339 48.022L68.1997 47.7769C70.9435 43.0035 83.862 28.5998 89.848 29.3386C92.7466 25.7052 89.2714 29.3244 88.7038 28.4116C95.0723 21.8357 97.0741 23.766 101.371 22.5816C106.003 19.8379 97.3944 23.6542 99.5902 21.5356C107.603 19.4952 105.267 16.8936 115.717 15.8583C116.82 16.4834 113.16 16.8243 112.242 17.6359C118.915 14.3755 133.362 15.1196 142.75 19.4437C153.634 24.5243 165.871 39.5353 166.355 53.6584L166.905 53.8058C166.628 59.421 167.767 65.9152 165.79 71.8784L167.126 69.0531" fill="#D70751"/>
<path d="M101.35 88L101 89.9357C102.63 92.4039 103.923 95.0772 106 97C104.505 93.7479 103.396 92.4039 101.35 88" fill="#D70751"/>
<path d="M105.153 87.9529C104.198 87.0833 103.636 86.0386 103 85C103.606 86.8282 104.848 88.3998 106 90L105.153 87.9529" fill="#D70751"/>
<path d="M178 72L177.612 72.9967C176.9 78.1573 175.358 83.2637 173 88C175.606 83.0037 177.286 77.538 178 72Z" fill="#D70751"/>
<path d="M120.165 1C122.104 0.172646 124.936 0.544843 127 0C124.313 0.262332 121.639 0.419282 119 0.811659L120.165 1Z" fill="#D70751"/>
<path d="M57.2194 34C57.7349 37.7905 53.6355 39.2634 58.1265 36.761C60.5379 32.4426 57.1885 35.5697 57.2194 34Z" fill="#D70751"/>
<path d="M53.085 52C53.6712 49.2471 53.7762 47.5958 54 46C52.3837 49.1686 53.255 49.8448 53.085 52Z" fill="#D70751"/>
<path d="M201.212 82.8449C201.147 82.9127 201.147 93.6726 201.013 96.4812C200.879 98.7518 200.677 103.632 195.851 103.632C190.89 103.632 189.684 97.9497 189.282 95.4787C188.813 92.7378 188.813 90.4629 188.813 89.4633C188.813 86.2536 189.014 77.294 196.589 77.294C198.869 77.294 200.142 77.9648 201.147 78.4971L201.212 82.8535V82.8449ZM181.773 90.7356C181.773 109.584 191.829 109.584 193.303 109.584C197.46 109.584 200.142 107.31 201.28 103.368L201.415 109.316C202.689 109.248 203.962 109.115 206.04 109.115C206.778 109.115 207.379 109.115 207.918 109.183C208.454 109.183 208.99 109.248 209.593 109.316C208.521 107.178 207.716 102.365 207.716 91.9343C207.716 81.7745 207.716 64.5967 208.587 59.3819C206.176 60.5201 204.095 61.2558 199.537 61.6554C201.347 63.5941 201.347 64.5967 201.347 73.4179C200.075 73.0183 198.465 72.5494 195.716 72.5494C183.718 72.5494 181.773 82.979 181.773 90.7399" fill="#D5DFEA"/>
<path d="M218.127 87.3165C218.195 81.7685 219.335 76.822 224.093 76.822C229.323 76.822 229.722 82.5691 229.589 87.3165H218.127V87.3165ZM236.225 87.9801C236.225 80.1586 234.685 72.4699 224.763 72.4699C211.089 72.4699 211.089 87.5805 211.089 90.7858C211.089 104.354 217.189 109.702 227.445 109.702C232.001 109.702 234.216 109.037 235.422 108.699C235.356 106.293 235.69 104.755 236.095 102.684C234.685 103.555 232.875 104.69 228.853 104.69C218.395 104.69 218.261 95.1956 218.261 91.9211H236.095L236.225 87.9685" fill="#D5DFEA"/>
<path d="M258.033 90.8654C258.033 97.0813 256.895 105.438 249.119 105.438C248.046 105.438 246.706 105.235 245.835 105.036C245.701 102.629 245.701 98.4849 245.701 93.6726C245.701 87.9226 246.302 84.9193 246.774 83.445C248.18 78.7005 251.331 78.6356 251.933 78.6356C257.028 78.6356 258.033 85.6463 258.033 90.8683V90.8654ZM238.796 98.1502C238.796 103.098 238.796 105.904 237.991 108.042C240.74 109.112 244.157 109.712 248.248 109.712C250.862 109.712 258.437 109.712 262.525 101.358C264.47 97.4809 265.139 92.2661 265.139 88.3222C265.139 85.9161 264.87 80.6364 262.927 77.2926C261.053 74.1536 258.035 72.548 254.819 72.548C248.383 72.548 246.506 77.8955 245.502 80.6364C245.502 77.2276 245.567 65.3296 246.103 59.2464C241.747 61.2529 239.063 61.5847 236.183 61.853C238.797 62.9205 238.797 67.3361 238.797 81.7082V98.1488" fill="#D5DFEA"/>
<path d="M278.026 109.315C276.683 109.115 275.743 108.981 273.799 108.981C271.658 108.981 270.179 109.116 268.64 109.315C269.31 108.044 269.577 107.441 269.778 103.099C270.047 97.1489 270.114 81.2391 269.645 77.8967C269.31 75.355 268.708 74.9554 267.769 74.2875C273.265 73.7523 274.807 73.3527 277.353 72.1497C276.819 75.0881 276.748 76.5624 276.748 81.0386C276.617 104.09 276.549 106.572 278.026 109.312" fill="#D5DFEA"/>
<path d="M299.491 90.3891C299.358 94.6014 299.29 97.5427 298.148 99.8811C296.741 102.89 294.396 103.759 292.653 103.759C288.627 103.759 287.759 100.418 287.759 97.1431C287.759 90.8608 293.39 90.3891 295.935 90.3891H299.491ZM281.055 98.6116C281.055 102.824 282.329 107.033 286.085 108.839C287.76 109.575 289.435 109.575 289.973 109.575C296.142 109.575 298.218 105.028 299.492 102.221C299.424 105.162 299.492 106.965 299.694 109.307C300.9 109.239 302.107 109.106 304.119 109.106C305.257 109.106 306.331 109.239 307.469 109.307C306.732 108.171 306.331 107.501 306.127 104.894C305.994 102.355 305.994 99.8147 305.994 96.2718L306.062 82.6355C306.062 77.5534 304.719 72.5406 294.663 72.5406C288.029 72.5406 284.142 74.5471 282.197 75.5497C283.003 77.0211 283.673 78.2877 284.275 81.1655C286.892 78.8921 290.31 77.689 293.794 77.689C299.361 77.689 299.361 81.366 299.361 86.578C298.086 86.513 297.013 86.3803 295.202 86.3803C286.685 86.3947 281.055 89.6693 281.055 98.6275" fill="#D5DFEA"/>
<path d="M338.098 102.694C338.166 104.967 338.166 107.374 339.103 109.312C337.626 109.18 336.755 108.978 334.009 108.978C332.399 108.978 331.528 109.113 330.254 109.312C330.52 108.444 330.658 108.109 330.791 106.971C330.992 105.436 331.126 100.288 331.126 98.4818V91.2633C331.126 88.1214 331.126 83.5745 330.922 81.9719C330.789 80.8366 330.456 77.7625 326.565 77.7625C322.744 77.7625 321.471 80.5683 321.001 82.8417C320.467 85.1801 320.467 87.7218 320.467 97.6134C320.532 106.171 320.532 106.97 321.202 109.311C320.064 109.178 318.656 109.045 316.645 109.045C315.035 109.045 313.963 109.11 312.625 109.311C313.093 108.241 313.363 107.705 313.496 103.963C313.632 100.286 313.899 82.2373 313.292 77.9616C312.959 75.3521 312.286 74.752 311.551 74.0841C316.982 73.8157 318.722 72.9459 320.401 72.0804V79.1633C321.204 77.0889 322.879 72.4771 329.584 72.4771C337.965 72.4771 338.03 78.5603 338.098 82.5691V102.661" fill="#D5DFEA"/>
<path d="M278.591 62.6782L273.039 68.2118L267.49 62.6782L273.039 57.1446L278.591 62.684" fill="#D70751"/>
<path d="M14.823 171.289V173.557H8.937V190H6.318V173.557H0.432V171.289H14.823ZM17.4266 190V169.48L19.9376 169.048V176.23C20.4056 176.05 20.9006 175.915 21.4226 175.825C21.9626 175.717 22.4936 175.663 23.0156 175.663C24.1316 175.663 25.0586 175.825 25.7966 176.149C26.5346 176.455 27.1196 176.896 27.5516 177.472C28.0016 178.03 28.3166 178.705 28.4966 179.497C28.6766 180.289 28.7666 181.162 28.7666 182.116V190H26.2556V182.656C26.2556 181.792 26.1926 181.054 26.0666 180.442C25.9586 179.83 25.7696 179.335 25.4996 178.957C25.2296 178.579 24.8696 178.309 24.4196 178.147C23.9696 177.967 23.4116 177.877 22.7456 177.877C22.4756 177.877 22.1966 177.895 21.9086 177.931C21.6206 177.967 21.3416 178.012 21.0716 178.066C20.8196 178.102 20.5856 178.147 20.3696 178.201C20.1716 178.255 20.0276 178.3 19.9376 178.336V190H17.4266ZM32.0684 183.007C32.0684 181.765 32.2484 180.685 32.6084 179.767C32.9684 178.831 33.4454 178.057 34.0394 177.445C34.6334 176.833 35.3174 176.374 36.0914 176.068C36.8654 175.762 37.6574 175.609 38.4674 175.609C40.3574 175.609 41.8064 176.203 42.8144 177.391C43.8224 178.561 44.3264 180.352 44.3264 182.764C44.3264 182.872 44.3264 183.016 44.3264 183.196C44.3264 183.358 44.3174 183.511 44.2994 183.655H34.6874C34.7954 185.113 35.2184 186.22 35.9564 186.976C36.6944 187.732 37.8464 188.11 39.4124 188.11C40.2944 188.11 41.0324 188.038 41.6264 187.894C42.2384 187.732 42.6974 187.579 43.0034 187.435L43.3544 189.541C43.0484 189.703 42.5084 189.874 41.7344 190.054C40.9784 190.234 40.1144 190.324 39.1424 190.324C37.9184 190.324 36.8564 190.144 35.9564 189.784C35.0744 189.406 34.3454 188.893 33.7694 188.245C33.1934 187.597 32.7614 186.832 32.4734 185.95C32.2034 185.05 32.0684 184.069 32.0684 183.007ZM41.7074 181.63C41.7254 180.496 41.4374 179.569 40.8434 178.849C40.2674 178.111 39.4664 177.742 38.4404 177.742C37.8644 177.742 37.3514 177.859 36.9014 178.093C36.4694 178.309 36.1004 178.597 35.7944 178.957C35.4884 179.317 35.2454 179.731 35.0654 180.199C34.9034 180.667 34.7954 181.144 34.7414 181.63H41.7074ZM61.3105 190.405C60.0865 190.405 59.0245 190.216 58.1245 189.838C57.2245 189.46 56.4865 188.947 55.9105 188.299C55.3345 187.633 54.9025 186.85 54.6145 185.95C54.3445 185.05 54.2095 184.078 54.2095 183.034V171.289H56.8285V182.737C56.8285 184.609 57.2425 185.968 58.0705 186.814C58.8985 187.66 59.9785 188.083 61.3105 188.083C61.9765 188.083 62.5795 187.984 63.1195 187.786C63.6775 187.57 64.1545 187.246 64.5505 186.814C64.9465 186.382 65.2525 185.833 65.4685 185.167C65.6845 184.483 65.7925 183.673 65.7925 182.737V171.289H68.4115V183.034C68.4115 184.078 68.2675 185.05 67.9795 185.95C67.7095 186.85 67.2775 187.633 66.6835 188.299C66.1075 188.947 65.3695 189.46 64.4695 189.838C63.5875 190.216 62.5345 190.405 61.3105 190.405ZM72.7713 176.365C73.3473 176.221 74.1123 176.068 75.0663 175.906C76.0203 175.744 77.1183 175.663 78.3603 175.663C79.4763 175.663 80.4033 175.825 81.1413 176.149C81.8793 176.455 82.4643 176.896 82.8963 177.472C83.3463 178.03 83.6613 178.705 83.8413 179.497C84.0213 180.289 84.1113 181.162 84.1113 182.116V190H81.6003V182.656C81.6003 181.792 81.5373 181.054 81.4113 180.442C81.3033 179.83 81.1143 179.335 80.8443 178.957C80.5743 178.579 80.2143 178.309 79.7643 178.147C79.3143 177.967 78.7563 177.877 78.0903 177.877C77.8203 177.877 77.5413 177.886 77.2533 177.904C76.9653 177.922 76.6863 177.949 76.4163 177.985C76.1643 178.003 75.9303 178.03 75.7143 178.066C75.5163 178.102 75.3723 178.129 75.2823 178.147V190H72.7713V176.365ZM90.7862 190H88.2752V175.96H90.7862V190ZM89.5172 173.422C89.0672 173.422 88.6802 173.278 88.3562 172.99C88.0502 172.684 87.8972 172.279 87.8972 171.775C87.8972 171.271 88.0502 170.875 88.3562 170.587C88.6802 170.281 89.0672 170.128 89.5172 170.128C89.9672 170.128 90.3452 170.281 90.6512 170.587C90.9752 170.875 91.1372 171.271 91.1372 171.775C91.1372 172.279 90.9752 172.684 90.6512 172.99C90.3452 173.278 89.9672 173.422 89.5172 173.422ZM106.066 175.96C105.364 178.588 104.536 181.108 103.582 183.52C102.646 185.932 101.737 188.092 100.855 190H98.5873C97.7053 188.092 96.7873 185.932 95.8333 183.52C94.8973 181.108 94.0783 178.588 93.3763 175.96H96.0763C96.2923 176.842 96.5443 177.787 96.8323 178.795C97.1383 179.785 97.4533 180.775 97.7773 181.765C98.1193 182.737 98.4613 183.682 98.8033 184.6C99.1453 185.518 99.4693 186.337 99.7753 187.057C100.081 186.337 100.405 185.518 100.747 184.6C101.089 183.682 101.422 182.737 101.746 181.765C102.088 180.775 102.403 179.785 102.691 178.795C102.997 177.787 103.258 176.842 103.474 175.96H106.066ZM107.505 183.007C107.505 181.765 107.685 180.685 108.045 179.767C108.405 178.831 108.882 178.057 109.476 177.445C110.07 176.833 110.754 176.374 111.528 176.068C112.302 175.762 113.094 175.609 113.904 175.609C115.794 175.609 117.243 176.203 118.251 177.391C119.259 178.561 119.763 180.352 119.763 182.764C119.763 182.872 119.763 183.016 119.763 183.196C119.763 183.358 119.754 183.511 119.736 183.655H110.124C110.232 185.113 110.655 186.22 111.393 186.976C112.131 187.732 113.283 188.11 114.849 188.11C115.731 188.11 116.469 188.038 117.063 187.894C117.675 187.732 118.134 187.579 118.44 187.435L118.791 189.541C118.485 189.703 117.945 189.874 117.171 190.054C116.415 190.234 115.551 190.324 114.579 190.324C113.355 190.324 112.293 190.144 111.393 189.784C110.511 189.406 109.782 188.893 109.206 188.245C108.63 187.597 108.198 186.832 107.91 185.95C107.64 185.05 107.505 184.069 107.505 183.007ZM117.144 181.63C117.162 180.496 116.874 179.569 116.28 178.849C115.704 178.111 114.903 177.742 113.877 177.742C113.301 177.742 112.788 177.859 112.338 178.093C111.906 178.309 111.537 178.597 111.231 178.957C110.925 179.317 110.682 179.731 110.502 180.199C110.34 180.667 110.232 181.144 110.178 181.63H117.144ZM128.554 175.663C128.77 175.663 129.013 175.681 129.283 175.717C129.571 175.735 129.85 175.771 130.12 175.825C130.39 175.861 130.633 175.906 130.849 175.96C131.083 175.996 131.254 176.032 131.362 176.068L130.93 178.255C130.732 178.183 130.399 178.102 129.931 178.012C129.481 177.904 128.896 177.85 128.176 177.85C127.708 177.85 127.24 177.904 126.772 178.012C126.322 178.102 126.025 178.165 125.881 178.201V190H123.37V176.554C123.964 176.338 124.702 176.14 125.584 175.96C126.466 175.762 127.456 175.663 128.554 175.663ZM137.052 188.191C138.078 188.191 138.834 188.056 139.32 187.786C139.824 187.516 140.076 187.084 140.076 186.49C140.076 185.878 139.833 185.392 139.347 185.032C138.861 184.672 138.06 184.267 136.944 183.817C136.404 183.601 135.882 183.385 135.378 183.169C134.892 182.935 134.469 182.665 134.109 182.359C133.749 182.053 133.461 181.684 133.245 181.252C133.029 180.82 132.921 180.289 132.921 179.659C132.921 178.417 133.38 177.436 134.298 176.716C135.216 175.978 136.467 175.609 138.051 175.609C138.447 175.609 138.843 175.636 139.239 175.69C139.635 175.726 140.004 175.78 140.346 175.852C140.688 175.906 140.985 175.969 141.237 176.041C141.507 176.113 141.714 176.176 141.858 176.23L141.399 178.39C141.129 178.246 140.706 178.102 140.13 177.958C139.554 177.796 138.861 177.715 138.051 177.715C137.349 177.715 136.737 177.859 136.215 178.147C135.693 178.417 135.432 178.849 135.432 179.443C135.432 179.749 135.486 180.019 135.594 180.253C135.72 180.487 135.9 180.703 136.134 180.901C136.386 181.081 136.692 181.252 137.052 181.414C137.412 181.576 137.844 181.747 138.348 181.927C139.014 182.179 139.608 182.431 140.13 182.683C140.652 182.917 141.093 183.196 141.453 183.52C141.831 183.844 142.119 184.24 142.317 184.708C142.515 185.158 142.614 185.716 142.614 186.382C142.614 187.678 142.128 188.659 141.156 189.325C140.202 189.991 138.834 190.324 137.052 190.324C135.81 190.324 134.838 190.216 134.136 190C133.434 189.802 132.957 189.649 132.705 189.541L133.164 187.381C133.452 187.489 133.911 187.651 134.541 187.867C135.171 188.083 136.008 188.191 137.052 188.191ZM150.587 188.191C151.181 188.191 151.703 188.182 152.153 188.164C152.621 188.128 153.008 188.074 153.314 188.002V183.817C153.134 183.727 152.837 183.655 152.423 183.601C152.027 183.529 151.541 183.493 150.965 183.493C150.587 183.493 150.182 183.52 149.75 183.574C149.336 183.628 148.949 183.745 148.589 183.925C148.247 184.087 147.959 184.321 147.725 184.627C147.491 184.915 147.374 185.302 147.374 185.788C147.374 186.688 147.662 187.318 148.238 187.678C148.814 188.02 149.597 188.191 150.587 188.191ZM150.371 175.609C151.379 175.609 152.225 175.744 152.909 176.014C153.611 176.266 154.169 176.635 154.583 177.121C155.015 177.589 155.321 178.156 155.501 178.822C155.681 179.47 155.771 180.19 155.771 180.982V189.757C155.555 189.793 155.249 189.847 154.853 189.919C154.475 189.973 154.043 190.027 153.557 190.081C153.071 190.135 152.54 190.18 151.964 190.216C151.406 190.27 150.848 190.297 150.29 190.297C149.498 190.297 148.769 190.216 148.103 190.054C147.437 189.892 146.861 189.64 146.375 189.298C145.889 188.938 145.511 188.47 145.241 187.894C144.971 187.318 144.836 186.625 144.836 185.815C144.836 185.041 144.989 184.375 145.295 183.817C145.619 183.259 146.051 182.809 146.591 182.467C147.131 182.125 147.761 181.873 148.481 181.711C149.201 181.549 149.957 181.468 150.749 181.468C151.001 181.468 151.262 181.486 151.532 181.522C151.802 181.54 152.054 181.576 152.288 181.63C152.54 181.666 152.756 181.702 152.936 181.738C153.116 181.774 153.242 181.801 153.314 181.819V181.117C153.314 180.703 153.269 180.298 153.179 179.902C153.089 179.488 152.927 179.128 152.693 178.822C152.459 178.498 152.135 178.246 151.721 178.066C151.325 177.868 150.803 177.769 150.155 177.769C149.327 177.769 148.598 177.832 147.968 177.958C147.356 178.066 146.897 178.183 146.591 178.309L146.294 176.23C146.618 176.086 147.158 175.951 147.914 175.825C148.67 175.681 149.489 175.609 150.371 175.609ZM164.153 190.27C162.605 190.234 161.507 189.901 160.859 189.271C160.211 188.641 159.887 187.66 159.887 186.328V169.48L162.398 169.048V185.923C162.398 186.337 162.434 186.679 162.506 186.949C162.578 187.219 162.695 187.435 162.857 187.597C163.019 187.759 163.235 187.885 163.505 187.975C163.775 188.047 164.108 188.11 164.504 188.164L164.153 190.27ZM172.979 180.631C172.979 179.029 173.213 177.616 173.681 176.392C174.167 175.168 174.815 174.151 175.625 173.341C176.453 172.513 177.407 171.892 178.487 171.478C179.585 171.064 180.746 170.857 181.97 170.857C183.176 170.857 184.31 171.064 185.372 171.478C186.452 171.892 187.397 172.513 188.207 173.341C189.017 174.151 189.656 175.168 190.124 176.392C190.61 177.616 190.853 179.029 190.853 180.631C190.853 182.233 190.61 183.646 190.124 184.87C189.656 186.094 189.017 187.12 188.207 187.948C187.397 188.758 186.452 189.37 185.372 189.784C184.31 190.198 183.176 190.405 181.97 190.405C180.746 190.405 179.585 190.198 178.487 189.784C177.407 189.37 176.453 188.758 175.625 187.948C174.815 187.12 174.167 186.094 173.681 184.87C173.213 183.646 172.979 182.233 172.979 180.631ZM175.733 180.631C175.733 181.765 175.877 182.8 176.165 183.736C176.453 184.654 176.858 185.437 177.38 186.085C177.92 186.733 178.568 187.237 179.324 187.597C180.098 187.939 180.962 188.11 181.916 188.11C182.87 188.11 183.725 187.939 184.481 187.597C185.237 187.237 185.876 186.733 186.398 186.085C186.938 185.437 187.352 184.654 187.64 183.736C187.928 182.8 188.072 181.765 188.072 180.631C188.072 179.497 187.928 178.471 187.64 177.553C187.352 176.617 186.938 175.825 186.398 175.177C185.876 174.529 185.237 174.034 184.481 173.692C183.725 173.332 182.87 173.152 181.916 173.152C180.962 173.152 180.098 173.332 179.324 173.692C178.568 174.034 177.92 174.529 177.38 175.177C176.858 175.825 176.453 176.617 176.165 177.553C175.877 178.471 175.733 179.497 175.733 180.631ZM204.335 183.007C204.335 181.369 203.93 180.109 203.12 179.227C202.31 178.345 201.23 177.904 199.88 177.904C199.124 177.904 198.53 177.931 198.098 177.985C197.684 178.039 197.351 178.102 197.099 178.174V187.03C197.405 187.282 197.846 187.525 198.422 187.759C198.998 187.993 199.628 188.11 200.312 188.11C201.032 188.11 201.644 187.984 202.148 187.732C202.67 187.462 203.093 187.102 203.417 186.652C203.741 186.184 203.975 185.644 204.119 185.032C204.263 184.402 204.335 183.727 204.335 183.007ZM206.954 183.007C206.954 184.069 206.81 185.05 206.522 185.95C206.252 186.85 205.847 187.624 205.307 188.272C204.767 188.92 204.101 189.424 203.309 189.784C202.535 190.144 201.644 190.324 200.636 190.324C199.826 190.324 199.106 190.216 198.476 190C197.864 189.784 197.405 189.577 197.099 189.379V194.995H194.588V176.392C195.182 176.248 195.92 176.095 196.802 175.933C197.702 175.753 198.737 175.663 199.907 175.663C200.987 175.663 201.959 175.834 202.823 176.176C203.687 176.518 204.425 177.004 205.037 177.634C205.649 178.264 206.117 179.038 206.441 179.956C206.783 180.856 206.954 181.873 206.954 183.007ZM209.704 183.007C209.704 181.765 209.884 180.685 210.244 179.767C210.604 178.831 211.081 178.057 211.675 177.445C212.269 176.833 212.953 176.374 213.727 176.068C214.501 175.762 215.293 175.609 216.103 175.609C217.993 175.609 219.442 176.203 220.45 177.391C221.458 178.561 221.962 180.352 221.962 182.764C221.962 182.872 221.962 183.016 221.962 183.196C221.962 183.358 221.953 183.511 221.935 183.655H212.323C212.431 185.113 212.854 186.22 213.592 186.976C214.33 187.732 215.482 188.11 217.048 188.11C217.93 188.11 218.668 188.038 219.262 187.894C219.874 187.732 220.333 187.579 220.639 187.435L220.99 189.541C220.684 189.703 220.144 189.874 219.37 190.054C218.614 190.234 217.75 190.324 216.778 190.324C215.554 190.324 214.492 190.144 213.592 189.784C212.71 189.406 211.981 188.893 211.405 188.245C210.829 187.597 210.397 186.832 210.109 185.95C209.839 185.05 209.704 184.069 209.704 183.007ZM219.343 181.63C219.361 180.496 219.073 179.569 218.479 178.849C217.903 178.111 217.102 177.742 216.076 177.742C215.5 177.742 214.987 177.859 214.537 178.093C214.105 178.309 213.736 178.597 213.43 178.957C213.124 179.317 212.881 179.731 212.701 180.199C212.539 180.667 212.431 181.144 212.377 181.63H219.343ZM230.753 175.663C230.969 175.663 231.212 175.681 231.482 175.717C231.77 175.735 232.049 175.771 232.319 175.825C232.589 175.861 232.832 175.906 233.048 175.96C233.282 175.996 233.453 176.032 233.561 176.068L233.129 178.255C232.931 178.183 232.598 178.102 232.13 178.012C231.68 177.904 231.095 177.85 230.375 177.85C229.907 177.85 229.439 177.904 228.971 178.012C228.521 178.102 228.224 178.165 228.08 178.201V190H225.569V176.554C226.163 176.338 226.901 176.14 227.783 175.96C228.665 175.762 229.655 175.663 230.753 175.663ZM240.736 188.191C241.33 188.191 241.852 188.182 242.302 188.164C242.77 188.128 243.157 188.074 243.463 188.002V183.817C243.283 183.727 242.986 183.655 242.572 183.601C242.176 183.529 241.69 183.493 241.114 183.493C240.736 183.493 240.331 183.52 239.899 183.574C239.485 183.628 239.098 183.745 238.738 183.925C238.396 184.087 238.108 184.321 237.874 184.627C237.64 184.915 237.523 185.302 237.523 185.788C237.523 186.688 237.811 187.318 238.387 187.678C238.963 188.02 239.746 188.191 240.736 188.191ZM240.52 175.609C241.528 175.609 242.374 175.744 243.058 176.014C243.76 176.266 244.318 176.635 244.732 177.121C245.164 177.589 245.47 178.156 245.65 178.822C245.83 179.47 245.92 180.19 245.92 180.982V189.757C245.704 189.793 245.398 189.847 245.002 189.919C244.624 189.973 244.192 190.027 243.706 190.081C243.22 190.135 242.689 190.18 242.113 190.216C241.555 190.27 240.997 190.297 240.439 190.297C239.647 190.297 238.918 190.216 238.252 190.054C237.586 189.892 237.01 189.64 236.524 189.298C236.038 188.938 235.66 188.47 235.39 187.894C235.12 187.318 234.985 186.625 234.985 185.815C234.985 185.041 235.138 184.375 235.444 183.817C235.768 183.259 236.2 182.809 236.74 182.467C237.28 182.125 237.91 181.873 238.63 181.711C239.35 181.549 240.106 181.468 240.898 181.468C241.15 181.468 241.411 181.486 241.681 181.522C241.951 181.54 242.203 181.576 242.437 181.63C242.689 181.666 242.905 181.702 243.085 181.738C243.265 181.774 243.391 181.801 243.463 181.819V181.117C243.463 180.703 243.418 180.298 243.328 179.902C243.238 179.488 243.076 179.128 242.842 178.822C242.608 178.498 242.284 178.246 241.87 178.066C241.474 177.868 240.952 177.769 240.304 177.769C239.476 177.769 238.747 177.832 238.117 177.958C237.505 178.066 237.046 178.183 236.74 178.309L236.443 176.23C236.767 176.086 237.307 175.951 238.063 175.825C238.819 175.681 239.638 175.609 240.52 175.609ZM252.44 175.96H257.759V178.066H252.44V184.546C252.44 185.248 252.494 185.833 252.602 186.301C252.71 186.751 252.872 187.111 253.088 187.381C253.304 187.633 253.574 187.813 253.898 187.921C254.222 188.029 254.6 188.083 255.032 188.083C255.788 188.083 256.391 188.002 256.841 187.84C257.309 187.66 257.633 187.534 257.813 187.462L258.299 189.541C258.047 189.667 257.606 189.82 256.976 190C256.346 190.198 255.626 190.297 254.816 190.297C253.862 190.297 253.07 190.18 252.44 189.946C251.828 189.694 251.333 189.325 250.955 188.839C250.577 188.353 250.307 187.759 250.145 187.057C250.001 186.337 249.929 185.509 249.929 184.573V172.045L252.44 171.613V175.96ZM263.465 190H260.954V175.96H263.465V190ZM262.196 173.422C261.746 173.422 261.359 173.278 261.035 172.99C260.729 172.684 260.576 172.279 260.576 171.775C260.576 171.271 260.729 170.875 261.035 170.587C261.359 170.281 261.746 170.128 262.196 170.128C262.646 170.128 263.024 170.281 263.33 170.587C263.654 170.875 263.816 171.271 263.816 171.775C263.816 172.279 263.654 172.684 263.33 172.99C263.024 173.278 262.646 173.422 262.196 173.422ZM267.783 176.365C268.359 176.221 269.124 176.068 270.078 175.906C271.032 175.744 272.13 175.663 273.372 175.663C274.488 175.663 275.415 175.825 276.153 176.149C276.891 176.455 277.476 176.896 277.908 177.472C278.358 178.03 278.673 178.705 278.853 179.497C279.033 180.289 279.123 181.162 279.123 182.116V190H276.612V182.656C276.612 181.792 276.549 181.054 276.423 180.442C276.315 179.83 276.126 179.335 275.856 178.957C275.586 178.579 275.226 178.309 274.776 178.147C274.326 177.967 273.768 177.877 273.102 177.877C272.832 177.877 272.553 177.886 272.265 177.904C271.977 177.922 271.698 177.949 271.428 177.985C271.176 178.003 270.942 178.03 270.726 178.066C270.528 178.102 270.384 178.129 270.294 178.147V190H267.783V176.365ZM292.089 188.596C291.873 188.74 291.45 188.929 290.82 189.163C290.208 189.379 289.488 189.487 288.66 189.487C287.814 189.487 287.013 189.352 286.257 189.082C285.519 188.812 284.871 188.398 284.313 187.84C283.755 187.264 283.314 186.553 282.99 185.707C282.666 184.861 282.504 183.853 282.504 182.683C282.504 181.657 282.657 180.721 282.963 179.875C283.269 179.011 283.71 178.273 284.286 177.661C284.88 177.031 285.6 176.545 286.446 176.203C287.292 175.843 288.246 175.663 289.308 175.663C290.478 175.663 291.495 175.753 292.359 175.933C293.241 176.095 293.979 176.248 294.573 176.392V188.92C294.573 191.08 294.015 192.646 292.899 193.618C291.783 194.59 290.091 195.076 287.823 195.076C286.941 195.076 286.104 195.004 285.312 194.86C284.538 194.716 283.863 194.545 283.287 194.347L283.746 192.16C284.25 192.358 284.862 192.529 285.582 192.673C286.32 192.835 287.085 192.916 287.877 192.916C289.371 192.916 290.442 192.619 291.09 192.025C291.756 191.431 292.089 190.486 292.089 189.19V188.596ZM292.062 178.174C291.81 178.102 291.468 178.039 291.036 177.985C290.622 177.913 290.055 177.877 289.335 177.877C287.985 177.877 286.941 178.318 286.203 179.2C285.483 180.082 285.123 181.252 285.123 182.71C285.123 183.52 285.222 184.213 285.42 184.789C285.636 185.365 285.915 185.842 286.257 186.22C286.617 186.598 287.022 186.877 287.472 187.057C287.94 187.237 288.417 187.327 288.903 187.327C289.569 187.327 290.181 187.237 290.739 187.057C291.297 186.859 291.738 186.634 292.062 186.382V178.174ZM309.654 188.137C312.39 188.137 313.758 187.201 313.758 185.329C313.758 184.753 313.632 184.267 313.38 183.871C313.146 183.457 312.822 183.106 312.408 182.818C311.994 182.512 311.517 182.251 310.977 182.035C310.455 181.819 309.897 181.603 309.303 181.387C308.619 181.153 307.971 180.892 307.359 180.604C306.747 180.298 306.216 179.947 305.766 179.551C305.316 179.137 304.956 178.651 304.686 178.093C304.434 177.535 304.308 176.86 304.308 176.068C304.308 174.43 304.866 173.152 305.982 172.234C307.098 171.316 308.637 170.857 310.599 170.857C311.733 170.857 312.759 170.983 313.677 171.235C314.613 171.469 315.297 171.73 315.729 172.018L314.892 174.151C314.514 173.917 313.947 173.692 313.191 173.476C312.453 173.242 311.589 173.125 310.599 173.125C310.095 173.125 309.627 173.179 309.195 173.287C308.763 173.395 308.385 173.557 308.061 173.773C307.737 173.989 307.476 174.268 307.278 174.61C307.098 174.934 307.008 175.321 307.008 175.771C307.008 176.275 307.107 176.698 307.305 177.04C307.503 177.382 307.782 177.688 308.142 177.958C308.502 178.21 308.916 178.444 309.384 178.66C309.87 178.876 310.401 179.092 310.977 179.308C311.787 179.632 312.525 179.956 313.191 180.28C313.875 180.604 314.46 180.991 314.946 181.441C315.45 181.891 315.837 182.431 316.107 183.061C316.377 183.673 316.512 184.42 316.512 185.302C316.512 186.94 315.909 188.2 314.703 189.082C313.515 189.964 311.832 190.405 309.654 190.405C308.916 190.405 308.232 190.351 307.602 190.243C306.99 190.153 306.441 190.045 305.955 189.919C305.469 189.775 305.046 189.631 304.686 189.487C304.344 189.325 304.074 189.19 303.876 189.082L304.659 186.922C305.073 187.156 305.703 187.417 306.549 187.705C307.395 187.993 308.43 188.137 309.654 188.137ZM317.868 192.619C318.066 192.709 318.318 192.79 318.624 192.862C318.948 192.952 319.263 192.997 319.569 192.997C320.559 192.997 321.333 192.772 321.891 192.322C322.449 191.89 322.953 191.179 323.403 190.189C322.269 188.029 321.207 185.743 320.217 183.331C319.245 180.901 318.435 178.444 317.787 175.96H320.487C320.685 176.77 320.919 177.643 321.189 178.579C321.477 179.515 321.792 180.478 322.134 181.468C322.476 182.458 322.845 183.448 323.241 184.438C323.637 185.428 324.051 186.382 324.483 187.3C325.167 185.41 325.761 183.538 326.265 181.684C326.769 179.83 327.246 177.922 327.696 175.96H330.288C329.64 178.606 328.92 181.153 328.128 183.601C327.336 186.031 326.481 188.308 325.563 190.432C325.203 191.242 324.825 191.935 324.429 192.511C324.051 193.105 323.628 193.591 323.16 193.969C322.692 194.347 322.161 194.626 321.567 194.806C320.991 194.986 320.334 195.076 319.596 195.076C319.398 195.076 319.191 195.058 318.975 195.022C318.759 195.004 318.543 194.968 318.327 194.914C318.129 194.878 317.94 194.833 317.76 194.779C317.598 194.725 317.481 194.68 317.409 194.644L317.868 192.619ZM336.203 188.191C337.229 188.191 337.985 188.056 338.471 187.786C338.975 187.516 339.227 187.084 339.227 186.49C339.227 185.878 338.984 185.392 338.498 185.032C338.012 184.672 337.211 184.267 336.095 183.817C335.555 183.601 335.033 183.385 334.529 183.169C334.043 182.935 333.62 182.665 333.26 182.359C332.9 182.053 332.612 181.684 332.396 181.252C332.18 180.82 332.072 180.289 332.072 179.659C332.072 178.417 332.531 177.436 333.449 176.716C334.367 175.978 335.618 175.609 337.202 175.609C337.598 175.609 337.994 175.636 338.39 175.69C338.786 175.726 339.155 175.78 339.497 175.852C339.839 175.906 340.136 175.969 340.388 176.041C340.658 176.113 340.865 176.176 341.009 176.23L340.55 178.39C340.28 178.246 339.857 178.102 339.281 177.958C338.705 177.796 338.012 177.715 337.202 177.715C336.5 177.715 335.888 177.859 335.366 178.147C334.844 178.417 334.583 178.849 334.583 179.443C334.583 179.749 334.637 180.019 334.745 180.253C334.871 180.487 335.051 180.703 335.285 180.901C335.537 181.081 335.843 181.252 336.203 181.414C336.563 181.576 336.995 181.747 337.499 181.927C338.165 182.179 338.759 182.431 339.281 182.683C339.803 182.917 340.244 183.196 340.604 183.52C340.982 183.844 341.27 184.24 341.468 184.708C341.666 185.158 341.765 185.716 341.765 186.382C341.765 187.678 341.279 188.659 340.307 189.325C339.353 189.991 337.985 190.324 336.203 190.324C334.961 190.324 333.989 190.216 333.287 190C332.585 189.802 332.108 189.649 331.856 189.541L332.315 187.381C332.603 187.489 333.062 187.651 333.692 187.867C334.322 188.083 335.159 188.191 336.203 188.191ZM347.335 175.96H352.654V178.066H347.335V184.546C347.335 185.248 347.389 185.833 347.497 186.301C347.605 186.751 347.767 187.111 347.983 187.381C348.199 187.633 348.469 187.813 348.793 187.921C349.117 188.029 349.495 188.083 349.927 188.083C350.683 188.083 351.286 188.002 351.736 187.84C352.204 187.66 352.528 187.534 352.708 187.462L353.194 189.541C352.942 189.667 352.501 189.82 351.871 190C351.241 190.198 350.521 190.297 349.711 190.297C348.757 190.297 347.965 190.18 347.335 189.946C346.723 189.694 346.228 189.325 345.85 188.839C345.472 188.353 345.202 187.759 345.04 187.057C344.896 186.337 344.824 185.509 344.824 184.573V172.045L347.335 171.613V175.96ZM354.803 183.007C354.803 181.765 354.983 180.685 355.343 179.767C355.703 178.831 356.18 178.057 356.774 177.445C357.368 176.833 358.052 176.374 358.826 176.068C359.6 175.762 360.392 175.609 361.202 175.609C363.092 175.609 364.541 176.203 365.549 177.391C366.557 178.561 367.061 180.352 367.061 182.764C367.061 182.872 367.061 183.016 367.061 183.196C367.061 183.358 367.052 183.511 367.034 183.655H357.422C357.53 185.113 357.953 186.22 358.691 186.976C359.429 187.732 360.581 188.11 362.147 188.11C363.029 188.11 363.767 188.038 364.361 187.894C364.973 187.732 365.432 187.579 365.738 187.435L366.089 189.541C365.783 189.703 365.243 189.874 364.469 190.054C363.713 190.234 362.849 190.324 361.877 190.324C360.653 190.324 359.591 190.144 358.691 189.784C357.809 189.406 357.08 188.893 356.504 188.245C355.928 187.597 355.496 186.832 355.208 185.95C354.938 185.05 354.803 184.069 354.803 183.007ZM364.442 181.63C364.46 180.496 364.172 179.569 363.578 178.849C363.002 178.111 362.201 177.742 361.175 177.742C360.599 177.742 360.086 177.859 359.636 178.093C359.204 178.309 358.835 178.597 358.529 178.957C358.223 179.317 357.98 179.731 357.8 180.199C357.638 180.667 357.53 181.144 357.476 181.63H364.442ZM370.668 176.365C371.244 176.221 372 176.068 372.936 175.906C373.89 175.744 374.988 175.663 376.23 175.663C377.13 175.663 377.886 175.789 378.498 176.041C379.11 176.275 379.623 176.626 380.037 177.094C380.163 177.004 380.361 176.878 380.631 176.716C380.901 176.554 381.234 176.401 381.63 176.257C382.026 176.095 382.467 175.96 382.953 175.852C383.439 175.726 383.961 175.663 384.519 175.663C385.599 175.663 386.481 175.825 387.165 176.149C387.849 176.455 388.38 176.896 388.758 177.472C389.154 178.048 389.415 178.732 389.541 179.524C389.685 180.316 389.757 181.18 389.757 182.116V190H387.246V182.656C387.246 181.828 387.201 181.117 387.111 180.523C387.039 179.929 386.886 179.434 386.652 179.038C386.436 178.642 386.13 178.354 385.734 178.174C385.356 177.976 384.861 177.877 384.249 177.877C383.403 177.877 382.701 177.994 382.143 178.228C381.603 178.444 381.234 178.642 381.036 178.822C381.18 179.29 381.288 179.803 381.36 180.361C381.432 180.919 381.468 181.504 381.468 182.116V190H378.957V182.656C378.957 181.828 378.912 181.117 378.822 180.523C378.732 179.929 378.57 179.434 378.336 179.038C378.12 178.642 377.814 178.354 377.418 178.174C377.04 177.976 376.554 177.877 375.96 177.877C375.708 177.877 375.438 177.886 375.15 177.904C374.862 177.922 374.583 177.949 374.313 177.985C374.061 178.003 373.827 178.03 373.611 178.066C373.395 178.102 373.251 178.129 373.179 178.147V190H370.668V176.365Z" fill="#D5DFEA"/>
</svg>
